<svg width="88" height="48" viewBox="0 0 88 48" fill="none" xmlns="http://www.w3.org/2000/svg">
<path d="M31.721 44.0015C27.7906 40.8866 23.2364 34.47 22.9868 34.034C22.7373 33.5979 22.9244 33.0372 23.1116 32.4765C23.4235 31.3552 32.4073 7.86923 32.4073 7.86923C33.7798 4.13141 36.1505 1.32805 36.6496 0.705078C36.6496 0.705078 30.2861 3.13466 27.2915 10.2365C24.2969 17.3384 19.8675 28.801 19.8675 28.801C19.8675 28.801 19.8051 29.424 19.0564 28.801C18.3078 28.178 13.0673 22.2598 5.89275 25.6862C-1.84325 30.4207 0.402684 40.326 0.402684 40.3883C0.402684 40.4506 2.2743 48.6115 10.5094 47.677C17.8711 47.054 21.0528 39.08 21.0528 39.08C21.0528 39.08 26.8548 45.8081 30.3485 46.9917C37.2111 49.4213 40.7047 45.995 40.7047 45.995C40.7047 45.995 35.6514 47.1163 31.721 44.0015ZM17.6215 34.6569C17.6215 34.6569 16.9353 39.5161 12.7553 42.1949C7.26526 44.9359 5.08172 39.1423 5.08172 39.1423C5.08172 39.1423 3.14772 33.4733 8.13869 29.7355C12.5058 27.1813 16.8729 32.9126 17.372 33.5356C17.8711 34.1586 17.6215 34.6569 17.6215 34.6569Z" fill="url(#paint0_linear)"/>
<path d="M44.0709 30.2222C44.0709 29.7861 43.7589 29.4746 43.3222 29.4746C42.8855 29.4746 42.5736 29.7861 42.5736 30.2222V38.3831C42.5736 38.57 42.3864 38.7569 42.1993 38.7569H39.8909C39.7038 38.7569 39.5166 38.57 39.5166 38.3831V30.2222C39.5166 29.7861 39.2047 29.4746 38.768 29.4746C38.3313 29.4746 38.0193 29.7861 38.0193 30.2222V38.3831C38.0193 38.57 37.8322 38.7569 37.645 38.7569H35.4615C35.2743 38.7569 35.0871 38.57 35.0871 38.3831V30.2222C35.0871 29.7861 34.7752 29.4746 34.3385 29.4746C33.9018 29.4746 33.5898 29.7861 33.5898 30.2222V39.5044C33.5898 39.9405 33.9642 40.3143 34.4009 40.3143H43.2598C43.6966 40.3143 44.0709 39.9405 44.0709 39.5044V30.2222Z" fill="url(#paint1_linear)"/>
<path d="M53.8654 39.1314L49.9974 34.3968C49.935 34.3345 49.935 34.21 49.935 34.0854C49.935 33.5247 50.9956 32.4033 51.8066 31.4689C52.4305 30.8459 53.1167 31.0951 53.5535 31.0328C53.9902 30.9705 54.1773 30.2852 53.8654 29.7246C53.3039 29.1639 51.9314 29.6 51.9314 29.6C51.9314 29.6 50.8084 29.6623 49.4359 31.9673C47.5643 34.7083 47.0028 34.9575 46.9404 34.9575V30.2229C46.9404 29.7869 46.5661 29.4131 46.1294 29.4131C45.6927 29.4131 45.3184 29.7869 45.3184 30.2229V39.5675C45.3184 40.0036 45.6927 40.3774 46.1294 40.3774C46.5661 40.3774 46.9404 40.0036 46.9404 39.5675V37.0133C47.3771 36.6395 48.2506 36.0789 48.6249 35.6428C48.812 35.5182 48.8744 35.5805 48.9992 35.6428L52.68 40.0659C52.9296 40.3774 53.3663 40.4396 53.6782 40.1905L53.7406 40.1282C54.0526 39.9413 54.1149 39.4429 53.8654 39.1314Z" fill="url(#paint2_linear)"/>
<path d="M59.5428 29.6621C56.5482 29.6621 54.0527 32.0917 54.0527 35.1442C54.0527 38.1345 56.4858 40.6264 59.5428 40.6264C62.5374 40.6264 65.0328 38.1968 65.0328 35.1442C65.0328 32.0917 62.5998 29.6621 59.5428 29.6621ZM59.5428 38.8198C57.484 38.8198 55.862 37.1378 55.862 35.1442C55.862 33.0884 57.5464 31.4687 59.5428 31.4687C61.6016 31.4687 63.2236 33.1507 63.2236 35.1442C63.286 37.2 61.6016 38.8198 59.5428 38.8198Z" fill="url(#paint3_linear)"/>
<path d="M75.5141 30.4097C75.5141 29.9736 75.1398 29.6621 74.7655 29.6621H67.9029C67.4662 29.6621 67.1543 30.0359 67.1543 30.4097C67.1543 30.4097 67.1543 30.4097 67.1543 30.472C67.1543 30.472 67.1543 30.472 67.1543 30.5343V38.0722C67.1543 38.0722 67.2791 39.069 65.8441 38.6329C64.846 38.446 64.846 39.5673 64.9707 39.6919C65.657 40.8756 67.0295 40.3149 67.2791 40.1903C67.7158 40.0034 68.6516 39.3181 68.6516 38.2591V31.6556C68.6516 31.4064 68.8387 31.2195 69.0883 31.2195H73.7673C73.9545 31.2195 74.1416 31.4064 74.1416 31.5933V39.6296C74.1416 40.0657 74.4536 40.3772 74.8903 40.3772C75.327 40.3772 75.6389 40.0657 75.6389 39.6296V30.5343C75.5141 30.5343 75.5141 30.472 75.5141 30.4097C75.5141 30.472 75.5141 30.472 75.5141 30.4097Z" fill="url(#paint4_linear)"/>
<path d="M87.617 35.0194C87.617 34.9571 87.617 34.9571 87.617 34.8948V34.7703C87.617 34.708 87.617 34.6457 87.617 34.5834C87.3674 31.78 85.0591 29.5996 82.1893 29.5996C79.1947 29.5996 76.6992 32.0292 76.6992 35.0817C76.6992 38.072 79.1323 40.5639 82.1893 40.5639C83.6866 40.5639 85.0591 39.9409 86.0573 39.0064V39.8163C86.0573 40.2524 86.4316 40.5639 86.8059 40.5639H86.8683C87.305 40.5639 87.617 40.1901 87.617 39.8163V35.2686C87.617 35.0817 87.617 35.0817 87.617 35.0194ZM82.1893 38.7573C80.1305 38.7573 78.5084 37.0752 78.5084 35.0817C78.5084 33.0259 80.1929 31.4062 82.1893 31.4062C84.1857 31.4062 85.8701 33.0882 85.8701 35.0817C85.8701 37.0752 84.248 38.7573 82.1893 38.7573Z" fill="url(#paint5_linear)"/>
<defs>
<linearGradient id="paint0_linear" x1="40.7047" y1="0.705109" x2="-1.26858" y2="1.95608" gradientUnits="userSpaceOnUse">
<stop stop-color="#FFB648"/>
<stop offset="1" stop-color="#FF9900"/>
</linearGradient>
<linearGradient id="paint1_linear" x1="44.0709" y1="29.4746" x2="33.2392" y2="29.8371" gradientUnits="userSpaceOnUse">
<stop stop-color="#FFB648"/>
<stop offset="1" stop-color="#FF9900"/>
</linearGradient>
<linearGradient id="paint2_linear" x1="54.0203" y1="29.4131" x2="45.0239" y2="29.6602" gradientUnits="userSpaceOnUse">
<stop stop-color="#FFB648"/>
<stop offset="1" stop-color="#FF9900"/>
</linearGradient>
<linearGradient id="paint3_linear" x1="65.0328" y1="29.6621" x2="53.6863" y2="30.0554" gradientUnits="userSpaceOnUse">
<stop stop-color="#FFB648"/>
<stop offset="1" stop-color="#FF9900"/>
</linearGradient>
<linearGradient id="paint4_linear" x1="75.6389" y1="29.6621" x2="64.556" y2="30.0441" gradientUnits="userSpaceOnUse">
<stop stop-color="#FFB648"/>
<stop offset="1" stop-color="#FF9900"/>
</linearGradient>
<linearGradient id="paint5_linear" x1="87.617" y1="29.5996" x2="76.3347" y2="29.9885" gradientUnits="userSpaceOnUse">
<stop stop-color="#FFB648"/>
<stop offset="1" stop-color="#FF9900"/>
</linearGradient>
</defs>
</svg>
