<?xml version="1.0" encoding="utf-8"?>
<!-- Generator: Adobe Illustrator 15.1.0, SVG Export Plug-In  -->
<!DOCTYPE svg PUBLIC "-//W3C//DTD SVG 1.1//EN" "http://www.w3.org/Graphics/SVG/1.1/DTD/svg11.dtd" [
	<!ENTITY ns_flows "http://ns.adobe.com/Flows/1.0/">
]>
<svg version="1.1"
	 xmlns="http://www.w3.org/2000/svg" xmlns:xlink="http://www.w3.org/1999/xlink" xmlns:a="http://ns.adobe.com/AdobeSVGViewerExtensions/3.0/"
	 x="0px" y="0px" width="300px" height="50px" viewBox="0 0 300 50" enable-background="new 0 0 300 50" xml:space="preserve">
<defs>
</defs>
<path fill="#005A9C" d="M103.753,15.066l-2.506,6.757l-0.267-1.374c-0.624-1.684-1.976-3.45-3.549-4.166l2.292,8.68l2.711-0.001
	l4.03-9.896H103.753"/>
<polyline fill="#005A9C" points="105.901,24.972 107.503,15.057 110.064,15.057 108.46,24.972 105.901,24.972 "/>
<path fill="#005A9C" d="M117.749,15.301c-0.506-0.2-1.305-0.417-2.295-0.417c-2.533,0-4.312,1.345-4.328,3.271
	c-0.016,1.425,1.272,2.222,2.242,2.696c1,0.484,1.333,0.795,1.33,1.229c-0.009,0.665-0.8,0.968-1.534,0.968
	c-1.023,0-1.569-0.151-2.408-0.52l-0.333-0.157l-0.358,2.219c0.6,0.276,1.705,0.515,2.855,0.528c2.688,0,4.437-1.33,4.457-3.387
	c0.011-1.131-0.673-1.986-2.152-2.694c-0.893-0.46-1.444-0.764-1.436-1.23c0-0.41,0.463-0.852,1.467-0.852
	c0.838-0.014,1.442,0.179,1.916,0.382l0.228,0.112L117.749,15.301 M124.315,15.066h-1.979c-0.613,0-1.073,0.175-1.343,0.823
	l-3.801,9.087h2.689c0,0,0.439-1.223,0.54-1.492c0.294,0,2.905,0.007,3.277,0.007c0.079,0.345,0.312,1.484,0.312,1.484h2.378
	L124.315,15.066z M121.157,21.457c0.213-0.57,1.021-2.771,1.021-2.771c-0.016,0.027,0.209-0.574,0.339-0.946l0.171,0.855
	c0,0,0.492,2.368,0.594,2.862H121.157L121.157,21.457z"/>
<path fill="#E89F3E" d="M98.922,15.061h-4.129l-0.024,0.171c3.21,0.821,5.329,2.835,6.211,5.22l-0.897-4.558
	C99.928,15.269,99.479,15.083,98.922,15.061"/>
<polyline fill="#005A9C" points="87.048,12.665 85.415,12.665 83.532,4.175 85.336,3.874 86.625,10.517 89.907,3.96 91.641,3.96 
	87.048,12.665 "/>
<path fill="#005A9C" d="M95.539,9.889h-3.894c-0.107,1.181,0.442,1.695,1.372,1.695c0.778,0,1.463-0.289,2.2-0.754l-0.006,1.181
	c-0.724,0.452-1.559,0.741-2.539,0.741c-1.695,0-2.815-0.967-2.479-3.153c0.304-1.972,1.668-3.165,3.25-3.165
	c1.821,0,2.427,1.369,2.162,3.089C95.588,9.65,95.552,9.801,95.539,9.889z M93.247,7.479c-0.603,0-1.166,0.476-1.432,1.469h2.411
	C94.271,8.005,93.975,7.479,93.247,7.479L93.247,7.479z M98.076,9.149l-0.536,3.479h-1.506l0.933-6.067h1.281V7.78
	c0.51-0.703,1.205-1.293,2.154-1.344l0.009,1.494C99.459,7.993,98.604,8.495,98.076,9.149 M100.392,12.627l0.934-6.067h1.507
	l-0.934,6.067H100.392z M102.248,5.543c-0.502,0-0.85-0.352-0.773-0.854c0.079-0.514,0.538-0.879,1.04-0.879
	c0.49,0,0.835,0.365,0.756,0.879C103.194,5.191,102.738,5.543,102.248,5.543L102.248,5.543z M107.007,4.904
	c-0.515,0-0.826,0.226-0.909,0.767l-0.138,0.891h1.155v1.231h-1.344l-0.745,4.835h-1.494l0.744-4.835h-0.879l0.189-1.231h0.879
	l0.161-1.042c0.206-1.344,1.137-1.846,2.381-1.846c0.264,0,0.461,0.025,0.608,0.051l0.011,1.229
	C107.479,4.928,107.257,4.904,107.007,4.904 M107.022,12.627l0.935-6.067h1.506l-0.934,6.067H107.022z M108.879,5.543
	c-0.502,0-0.85-0.352-0.772-0.854c0.08-0.514,0.537-0.879,1.04-0.879c0.49,0,0.836,0.365,0.757,0.879
	C109.825,5.191,109.368,5.543,108.879,5.543L108.879,5.543z M115.307,9.889h-3.893c-0.106,1.181,0.442,1.695,1.372,1.695
	c0.779,0,1.464-0.289,2.201-0.754l-0.006,1.181c-0.723,0.452-1.559,0.741-2.539,0.741c-1.695,0-2.814-0.967-2.479-3.153
	c0.304-1.972,1.668-3.165,3.251-3.165c1.821,0,2.427,1.369,2.163,3.089C115.356,9.65,115.32,9.801,115.307,9.889z M113.015,7.479
	c-0.603,0-1.166,0.476-1.432,1.469h2.411C114.039,8.005,113.744,7.479,113.015,7.479L113.015,7.479z M119.771,12.627l0.004-0.842
	c-0.507,0.514-1.166,0.967-2.008,0.967c-1.269,0-2.141-0.942-1.826-2.99c0.348-2.26,1.746-3.265,3.152-3.265
	c0.579,0,1.027,0.1,1.372,0.225l0.451-2.926l1.544-0.238l-1.396,9.068L119.771,12.627L119.771,12.627z M120.275,7.967
	c-0.35-0.176-0.625-0.263-1.14-0.263c-0.792,0-1.468,0.64-1.673,1.971c-0.182,1.18,0.236,1.733,0.901,1.733
	c0.552,0,1.03-0.327,1.508-0.829L120.275,7.967L120.275,7.967z M125.682,12.684c-0.714,0-1.296-0.115-1.837-0.304l0.992-6.441
	l1.169-0.181l-0.43,2.788c0.343-0.304,0.816-0.609,1.398-0.609c0.97,0,1.62,0.723,1.382,2.264
	C128.096,11.895,127.052,12.684,125.682,12.684z M126.524,8.945c-0.381,0-0.763,0.257-1.101,0.6l-0.32,2.083
	c0.225,0.086,0.38,0.124,0.704,0.124c0.723,0,1.228-0.437,1.39-1.484C127.332,9.383,127.037,8.945,126.524,8.945L126.524,8.945z
	 M131.046,12.874c-0.583,1.132-1.161,1.484-2.045,1.484c-0.2,0-0.311-0.019-0.411-0.047l-0.008-0.942
	c0.147,0.039,0.304,0.067,0.523,0.067c0.333,0,0.622-0.153,0.817-0.486l0.151-0.304l-0.969-4.528l1.212-0.152l0.563,3.272
	l1.521-3.206h1.132L131.046,12.874"/>
<path id="svg_4_1_" fill="#005A9C" d="M29.111,7.27c2.302-0.884,4.912-0.817,7.226-0.007c-0.182,1.096-0.374,2.189-0.558,3.285
	C34.522,9.939,33.09,9.664,31.7,9.839c-0.606,0.085-1.289,0.317-1.574,0.909c-0.174,0.388,0.054,0.824,0.366,1.065
	c1.134,0.894,2.603,1.228,3.718,2.156c0.894,0.684,1.574,1.741,1.521,2.902c0.063,1.466-0.696,2.9-1.883,3.745
	c-1.519,1.091-3.436,1.413-5.267,1.432c-1.498-0.083-3.036-0.222-4.434-0.81c0.137-1.133,0.375-2.252,0.553-3.382
	c1.56,0.753,3.311,1.209,5.047,0.971c0.535-0.096,1.098-0.277,1.462-0.705c0.292-0.327,0.344-0.859,0.081-1.217
	c-0.393-0.547-1.03-0.828-1.611-1.121c-1.243-0.578-2.546-1.238-3.334-2.407c-0.736-1.06-0.664-2.5-0.113-3.626
	C26.796,8.567,27.917,7.748,29.111,7.27L29.111,7.27L29.111,7.27L29.111,7.27z"/>
<path id="svg_5_1_" fill="#FFAA00" d="M0.001,6.917C2.146,6.919,4.29,6.918,6.434,6.916C6.976,6.912,7.572,7.004,7.967,7.41
	C8.302,7.743,8.39,8.226,8.481,8.67c0.425,2.13,0.896,4.253,1.316,6.386c-1.072-2.638-3.114-4.826-5.615-6.171
	C2.869,8.161,1.453,7.631,0,7.269C0,7.181,0.001,7.004,0.001,6.917z"/>
<path id="svg_6_1_" fill="#005A9C" d="M14.146,6.91c1.448-0.024,2.895-0.003,4.343-0.01c-2.101,4.97-4.271,9.912-6.378,14.878
	c-1.446,0.025-2.895,0.005-4.342,0.012c-1.196-4.301-2.42-8.596-3.587-12.905c2.5,1.345,4.542,3.533,5.615,6.171l0.017,0.034
	c0.133,0.628,0.265,1.259,0.377,1.893C11.529,13.632,12.821,10.265,14.146,6.91L14.146,6.91L14.146,6.91L14.146,6.91L14.146,6.91z"
	/>
<path id="svg_7_1_" fill="#005A9C" d="M20.082,6.897c1.361,0,2.723,0.007,4.083-0.002c-0.82,4.967-1.682,9.929-2.529,14.893
	c-1.366,0.005-2.732,0-4.098,0.002C18.388,16.825,19.219,11.859,20.082,6.897L20.082,6.897L20.082,6.897L20.082,6.897z"/>
<path fill="#005A9C" d="M46.718,6.905c-1.161,0-2.323-0.028-3.483,0.012c-0.768,0.027-1.518,0.462-1.792,1.203
	c-2.026,4.563-4.041,9.133-6.054,13.703c1.437,0.006,2.873-0.002,4.31,0.003c0.279-0.743,0.573-1.479,0.841-2.226
	c1.725-0.021,3.454-0.034,5.18,0.009c0.147,0.739,0.321,1.476,0.481,2.214c1.266,0.002,2.532,0.003,3.799,0
	C48.93,16.844,47.81,11.878,46.718,6.905z M41.749,16.463c0.705-1.794,1.409-3.59,2.087-5.396c0.425,1.794,0.795,3.602,1.19,5.403
	C43.932,16.469,42.839,16.478,41.749,16.463z"/>
<path id="svg_2_1_" fill="#FF0004" d="M178.342,0.316c1.26-0.292,2.458-0.329,3.742-0.313c3.471-0.037,6.93,1.548,9.497,3.829
	c6.383,5.587,4.897,6.647,4.708,9.135c0.034,0.066,0.044,0.214,0.047,0.364c-0.896,2.041-0.959,4.736-0.107,4.761
	c0.236,6.416-4.396,7.725-4.652,7.967c-2.363,2.1-5.389,3.541-8.563,3.752c-1.922,0.178-3.266,0.131-4.853-0.278
	c-4.106-0.921-7.736-3.69-9.757-7.379c-2.668-4.74-2.438-10.961,0.63-15.464C171.154,3.468,174.564,1.12,178.342,0.316z"/>
<path id="svg_26_1_" fill="#FFFFFF" d="M197.695,11.979l12.296-0.792l-0.354,8.674h-11.941
	C195.188,18.043,194.883,13.698,197.695,11.979z"/>
<path id="svg_3_1_" fill="#FFAA00" d="M198.084,0.375c1.329-0.355,2.521-0.343,3.88-0.369c0.778-0.008,1.831,0.117,2.597,0.273
	c3.28,0.671,6.326,2.465,8.479,5.031c2.11,2.499,3.407,5.699,3.498,8.98c0.159,3.109-0.69,6.255-2.416,8.851
	c-2.261,3.507-6.067,5.983-10.198,6.601c-1.46,0.074-2.725,0.259-4.388,0.029c-2.954-0.338-5.774-1.692-7.961-3.698
	c0.258-0.239,0.562-0.521,0.813-0.766l-1.537-0.006l-0.834-0.928l3.092,0.03l0.68-0.882l-4.469-0.07l-0.545-0.77l5.438-0.023
	l0.576-0.942l-6.558,0.033l-0.406-0.841c2.336-0.047,4.979,0,7.313-0.017l0.408-0.914l-8.013,0.007l-0.351-0.868l8.668-0.024
	l0.356-0.985c-0.851-0.023-1.748-0.024-2.597-0.006c0.049-0.278,0.094-0.56,0.14-0.841c0.72,0.001,1.438,0.001,2.162,0.001
	c0.707,1.456,2.677,1.866,4.038,1.158c0.13-0.343,0.18-0.708,0.285-1.058l0.07-0.326c0.01,0.763,0.291,1.355,0.777,1.585
	c0.77,0.385,1.68,0.165,2.393-0.252c0.033,0.099,0.102,0.297,0.137,0.396c0.412-0.007,0.826-0.011,1.24-0.011
	c0.232-1.279,0.502-2.551,0.731-3.83c0.188-0.739-0.422-1.405-1.099-1.588c-0.911-0.234-1.918-0.215-2.811,0.084
	c-0.275,0.365-0.32,0.846-0.464,1.267c0.771-0.14,1.569-0.294,2.354-0.163c0.324,0.041,0.351,0.379,0.382,0.666
	c-0.929,0.092-1.761-0.03-2.607,0.439c-0.526,0.27-0.805,0.566-0.987,1.347c-0.484,0.195-0.959,0.495-1.504,0.429
	c-0.727-0.004-1.474-0.494-1.56-1.258c-0.088-0.936,0.216-2.015,0.991-2.603c0.777-0.547,1.764-0.262,2.578,0.039
	c0.066-0.475,0.132-0.95,0.183-1.428c-1.563-0.557-3.746-0.307-4.728,1.207l-0.03-0.381c-3.13-0.012-6.259,0.006-9.386-0.014
	c0.043-0.295,0.09-0.591,0.134-0.887l9.183,0.059l-0.242-0.968l-8.912-0.021l0.332-0.858l8.377-0.008l-0.383-0.942
	c-2.316,0.012-5.373,0.012-7.689,0.007l0.51-0.831c2.217-0.04,4.572,0.012,6.794-0.017l-0.632-0.93
	c-1.854-0.016-3.861,0.031-5.717-0.009l0.615-0.821l4.688-0.008l-0.77-0.971l-3.381-0.034l0.635-0.867l2.139,0.031
	c-0.32-0.362-0.646-0.719-1.001-1.046C193.407,2.125,195.646,0.955,198.084,0.375L198.084,0.375L198.084,0.375L198.084,0.375
	L198.084,0.375z"/>
<path id="svg_12_1_" fill="#FFFFFF" d="M167.952,18.731c0.433-2.223,0.737-4.469,1.194-6.686c0.78,0.017,1.562,0.013,2.342,0.001
	c0.164,1.265,0.176,2.54,0.225,3.812c0.596-1.328,1.09-2.554,1.691-3.803c0.832,0.006,1.662-0.025,2.492,0.032
	c-0.399,2.217-0.76,4.44-1.195,6.652c-0.46-0.008-0.92-0.008-1.378-0.006c0.298-1.651,0.612-3.297,0.875-4.953
	c-0.771,1.617-1.366,3.312-2.087,4.951l-1.579,0.008l-0.038-0.566c-0.059-1.475-0.152-2.947-0.245-4.418l-0.877,4.987
	L167.952,18.731z"/>
<path id="svg_13_1_" fill="#FFFFFF" d="M213.055,12.173c0.465-0.055,0.934-0.023,1.402-0.005c-0.466,2.181-0.751,4.397-1.197,6.583
	c-0.453-0.004-0.938-0.004-1.385,0c0.005-0.134,0.082-0.406,0.088-0.539c-0.404,0.34-0.904,0.675-1.466,0.603
	c-1.21-0.086-1.894-1.113-1.831-2.143c-0.131-1.534,0.979-3.402,2.672-3.34c0.574,0.003,0.938,0.342,1.354,0.64
	C212.816,13.37,212.917,12.788,213.055,12.173z"/>
<path id="svg_14_1_" fill="#FFFFFF" d="M176.617,13.428c1.121-0.275,2.464-0.435,3.457,0.28c0.563,0.401,0.402,1.166,0.32,1.752
	c-0.217,1.09-0.4,2.191-0.65,3.276c-0.396-0.005-0.793-0.002-1.188,0.008c-0.008-0.12-0.02-0.364-0.024-0.487
	c-0.734,0.515-1.8,0.795-2.595,0.268c-0.826-0.602-0.711-1.922,0-2.567c0.795-0.789,1.945-0.656,2.979-0.693
	c0.042-0.268,0.036-0.684-0.305-0.76c-0.789-0.259-1.623,0.055-2.424,0.126C176.322,14.228,176.4,13.797,176.617,13.428z"/>
<path id="svg_15_1_" fill="#FFFFFF" d="M182.016,13.322c0.855-0.205,1.791-0.184,2.652-0.037l-0.209,1.155
	c-0.65-0.013-1.407-0.291-1.977,0.128c-0.217,0.249,0.006,0.603,0.248,0.719c0.504,0.271,1.164,0.324,1.5,0.842
	c0.485,0.92-0.01,2.232-1.051,2.495c-0.975,0.231-2.013,0.166-2.979-0.063c0.063-0.393,0.146-0.781,0.231-1.171
	c0.674,0.16,1.392,0.322,2.084,0.154c0.269-0.124,0.379-0.381,0.27-0.658c-0.506-0.491-1.342-0.495-1.77-1.089
	C180.516,14.916,180.962,13.539,182.016,13.322L182.016,13.322z"/>
<path id="svg_18_1_" fill="#FFFFFF" d="M207.675,14.119c0.372-0.499,0.896-0.901,1.556-0.826c-0.094,0.401-0.183,0.803-0.262,1.203
	c-0.417,0.091-0.886,0.137-1.197,0.462c-0.33,0.292-0.403,0.755-0.481,1.166c-0.166,0.859-0.241,1.739-0.487,2.584
	c-0.459,0.041-0.923,0.025-1.383,0.028c0.271-1.812,0.592-3.618,0.934-5.419c0.457,0.004,0.92,0.002,1.381-0.003
	C207.712,13.581,207.693,13.849,207.675,14.119L207.675,14.119L207.675,14.119L207.675,14.119z"/>
<path id="svg_20_1_" fill="#FFAA00" d="M210.766,14.9c0.27-0.374,0.787-0.467,1.203-0.294c1.051,0.681-0.258,3.147-0.996,2.999
	C209.573,17.573,210.1,15.648,210.766,14.9z"/>
<path id="svg_21_1_" fill="#FFAA00" d="M186.412,15.608c0.008-0.04,0.021-0.127,0.027-0.172l0.927,0.02
	c-0.036,0.275-0.06,0.551-0.07,0.828l-0.769,0.002L186.412,15.608z"/>
<path id="svg_22_1_" fill="#FFAA00" d="M194.057,15.424c0.549,0.012,1.098,0.015,1.648,0.016c-0.018,0.279-0.023,0.558-0.018,0.838
	c-0.594-0.009-1.187-0.012-1.777-0.011C193.953,15.985,193.999,15.703,194.057,15.424z"/>
<path id="svg_23_1_" fill="#FF0004" d="M177.003,16.81c0.379-0.587,1.146-0.642,1.779-0.619c-0.066,0.405-0.114,0.867-0.456,1.143
	c-0.337,0.343-1.066,0.474-1.275,0.259C176.893,17.441,176.799,17.039,177.003,16.81L177.003,16.81L177.003,16.81L177.003,16.81z"/>
<path id="svg_24_1_" fill="#FFAA00" d="M202.141,16.709c0.396-0.534,1.115-0.504,1.709-0.519c-0.049,0.405-0.082,0.876-0.44,1.14
	c-0.33,0.355-1.104,0.419-1.284,0.271C201.744,17.406,201.863,16.957,202.141,16.709z"/>
<path id="svg_25_1_" fill="#FF0004" d="M193.91,16.269c0.592-0.003,1.186,0,1.777,0.009c0.043,0.334,0.119,0.666,0.229,0.983
	c-0.723,0-1.443,0-2.162-0.001C193.805,16.93,193.859,16.596,193.91,16.269z"/>
<path id="svg_16_1_" fill="#FFFFFF" d="M188.656,13.546c0.923-0.478,2.188-0.529,3.021,0.158c0.74,0.699,0.543,1.8,0.369,2.693
	c-1.113-0.003-2.229-0.016-3.345,0.007c0.144,0.414,0.327,0.866,0.757,1.059c0.807,0.288,1.691,0.111,2.454-0.232
	c-0.088,0.435-0.174,0.87-0.256,1.306c-1.103,0.268-2.36,0.354-3.371-0.248c-0.699-0.4-0.981-1.239-0.991-2.005
	c0.012-0.277,0.035-0.553,0.07-0.828C187.563,14.701,187.936,13.923,188.656,13.546z"/>
<path id="svg_19_1_" fill="#FF0004" d="M188.926,15.361c0.201-0.481,0.557-1.118,1.184-1.013c0.521,0.017,0.701,0.59,0.793,1.013
	C190.242,15.385,189.583,15.387,188.926,15.361z"/>
<path id="svg_10_1_" fill="#FFFFFF" d="M185.648,12.045c0.463,0.009,0.927,0.007,1.389,0.038c-0.044,0.294-0.09,0.591-0.135,0.886
	c-0.01,0.083-0.032,0.254-0.045,0.339c0.279,0.015,0.562,0.021,0.844,0.03c-0.065,0.362-0.135,0.727-0.202,1.087
	c-0.285-0.004-0.569-0.012-0.853-0.019c-0.076,0.342-0.146,0.685-0.207,1.03c-0.006,0.045-0.021,0.132-0.027,0.172
	c-0.112,0.649-0.41,1.784-0.29,1.952c0.221,0.229,0.746,0.04,1.121,0.048l-0.306,0.957c-0.543,0.229-1.17,0.225-1.731,0.082
	c-0.373-0.067-0.67-0.431-0.558-0.815C184.943,15.896,185.313,13.974,185.648,12.045L185.648,12.045L185.648,12.045L185.648,12.045
	L185.648,12.045z"/>
<path id="svg_17_1_" fill="#FFFFFF" d="M192.99,13.352c0.478-0.058,0.966-0.03,1.449-0.028c-0.029,0.175-0.094,0.527-0.123,0.702
	c0.447-0.496,1.041-0.792,1.711-0.844c-0.186,0.48-0.363,0.961-0.516,1.454c-0.587,0.017-1.178,0.233-1.455,0.788
	c-0.059,0.279-0.104,0.561-0.146,0.845c-0.051,0.327-0.105,0.661-0.155,0.991c-0.047,0.281-0.091,0.563-0.14,0.841
	c-0.037,0.203-0.082,0.403-0.139,0.6c-0.485,0.05-0.973,0.03-1.457,0.032C192.374,16.946,192.609,15.134,192.99,13.352
	L192.99,13.352L192.99,13.352L192.99,13.352L192.99,13.352z"/>
<path fill="#F79E1B" d="M254.324,17.499c-0.256-0.164-0.529-0.296-0.818-0.392c-0.288-0.091-0.589-0.137-0.895-0.137
	c-0.187-0.002-0.375,0.021-0.557,0.063c-0.156,0.037-0.302,0.1-0.435,0.188c-0.114,0.074-0.211,0.174-0.281,0.291
	c-0.065,0.116-0.103,0.248-0.101,0.382c-0.004,0.119,0.027,0.238,0.089,0.338c0.063,0.098,0.149,0.179,0.25,0.23
	c0.123,0.07,0.258,0.124,0.397,0.156c0.174,0.046,0.353,0.08,0.529,0.106l0.422,0.057c0.244,0.035,0.486,0.09,0.723,0.163
	c0.224,0.067,0.436,0.172,0.627,0.307c0.185,0.131,0.336,0.303,0.445,0.499c0.116,0.222,0.176,0.475,0.166,0.728
	c0.008,0.29-0.062,0.577-0.197,0.834c-0.129,0.238-0.311,0.447-0.529,0.607c-0.236,0.171-0.5,0.298-0.779,0.376
	c-0.306,0.089-0.622,0.13-0.938,0.13c-0.217-0.001-0.432-0.021-0.645-0.056c-0.225-0.035-0.449-0.087-0.667-0.156
	c-0.208-0.069-0.409-0.154-0.603-0.261c-0.19-0.098-0.368-0.219-0.53-0.361l0.53-0.797c0.115,0.106,0.242,0.197,0.378,0.272
	c0.313,0.172,0.651,0.294,1.003,0.359c0.177,0.033,0.357,0.051,0.537,0.051c0.187,0.003,0.371-0.018,0.556-0.058
	c0.158-0.035,0.312-0.097,0.45-0.181c0.121-0.072,0.227-0.17,0.305-0.287c0.076-0.115,0.116-0.252,0.113-0.39
	c0.005-0.233-0.126-0.448-0.335-0.551c-0.328-0.154-0.681-0.251-1.041-0.284l-0.476-0.068c-0.227-0.031-0.453-0.086-0.668-0.158
	c-0.209-0.071-0.404-0.175-0.578-0.313c-0.172-0.136-0.313-0.308-0.412-0.504c-0.112-0.227-0.17-0.478-0.166-0.731
	c-0.006-0.285,0.061-0.568,0.189-0.822c0.127-0.241,0.303-0.449,0.52-0.605c0.229-0.17,0.49-0.298,0.765-0.373
	c0.306-0.089,0.619-0.131,0.937-0.129c0.41-0.006,0.815,0.056,1.207,0.179c0.354,0.117,0.689,0.28,1,0.487L254.324,17.499z
	 M257.648,17.974c0.272-0.005,0.547,0.053,0.799,0.161c0.236,0.104,0.449,0.258,0.623,0.454c0.176,0.205,0.313,0.443,0.402,0.699
	c0.101,0.29,0.151,0.598,0.146,0.904v0.177v0.169h-3.099c0.021,0.171,0.075,0.338,0.158,0.49c0.073,0.131,0.17,0.245,0.285,0.339
	c0.107,0.086,0.234,0.153,0.371,0.191c0.141,0.043,0.282,0.063,0.427,0.062c0.216-0.001,0.429-0.041,0.63-0.117
	c0.211-0.08,0.404-0.196,0.577-0.339l0.449,0.66c-0.233,0.21-0.51,0.368-0.812,0.464c-0.293,0.089-0.6,0.135-0.905,0.132
	c-0.293,0.004-0.587-0.051-0.861-0.16c-0.252-0.102-0.479-0.254-0.667-0.45c-0.193-0.199-0.345-0.438-0.441-0.699
	c-0.108-0.294-0.162-0.603-0.156-0.915c-0.004-0.309,0.048-0.615,0.152-0.902c0.094-0.262,0.238-0.502,0.428-0.704
	c0.188-0.198,0.416-0.354,0.67-0.454c0.261-0.108,0.541-0.166,0.824-0.167V17.974L257.648,17.974z M257.631,18.796
	c-0.146-0.005-0.294,0.021-0.433,0.074c-0.128,0.046-0.238,0.118-0.335,0.213c-0.094,0.098-0.17,0.213-0.225,0.34
	c-0.061,0.132-0.102,0.272-0.123,0.418h2.166c-0.027-0.286-0.146-0.556-0.337-0.769c-0.188-0.19-0.448-0.291-0.718-0.281
	L257.631,18.796z M262.473,17.974c0.301-0.005,0.6,0.055,0.877,0.168c0.258,0.111,0.488,0.284,0.668,0.504l-0.584,0.629
	c-0.136-0.136-0.291-0.253-0.463-0.337c-0.17-0.078-0.354-0.116-0.539-0.112c-0.168-0.003-0.334,0.031-0.49,0.097
	c-0.146,0.071-0.276,0.172-0.383,0.295c-0.113,0.123-0.203,0.269-0.262,0.427c-0.125,0.355-0.125,0.744,0,1.101
	c0.059,0.159,0.146,0.306,0.262,0.43c0.108,0.119,0.243,0.214,0.392,0.277c0.153,0.067,0.319,0.099,0.485,0.098
	c0.198,0.001,0.393-0.043,0.569-0.132c0.169-0.08,0.324-0.187,0.462-0.314l0.563,0.653c-0.188,0.219-0.424,0.392-0.688,0.504
	c-0.274,0.114-0.571,0.173-0.87,0.169c-0.309,0.005-0.615-0.054-0.902-0.169c-0.526-0.213-0.939-0.642-1.137-1.182
	c-0.207-0.57-0.207-1.195,0-1.767c0.196-0.532,0.605-0.957,1.127-1.17c0.289-0.118,0.6-0.177,0.912-0.174L262.473,17.974z
	 M268.706,20.518c0.008,0.297-0.052,0.593-0.168,0.866c-0.101,0.229-0.249,0.43-0.435,0.591c-0.181,0.156-0.393,0.27-0.619,0.339
	c-0.465,0.146-0.963,0.146-1.43,0c-0.229-0.069-0.438-0.183-0.621-0.339c-0.188-0.161-0.336-0.361-0.435-0.591
	c-0.117-0.273-0.173-0.57-0.164-0.866V18.08h0.916v2.368c-0.005,0.177,0.021,0.354,0.075,0.52c0.049,0.129,0.121,0.244,0.218,0.338
	c0.095,0.091,0.209,0.156,0.334,0.192c0.263,0.081,0.541,0.081,0.802,0c0.127-0.036,0.24-0.102,0.334-0.192
	c0.098-0.094,0.172-0.209,0.219-0.338c0.056-0.166,0.084-0.34,0.08-0.52V18.08h0.914L268.706,20.518z M272.029,17.974
	c0.127-0.003,0.253,0.008,0.378,0.029c0.114,0.018,0.226,0.049,0.333,0.092l-0.217,0.914c-0.105-0.054-0.219-0.093-0.334-0.115
	c-0.117-0.026-0.238-0.039-0.356-0.042c-0.14-0.002-0.274,0.024-0.401,0.074c-0.119,0.049-0.228,0.125-0.313,0.221
	c-0.091,0.104-0.16,0.227-0.204,0.358c-0.05,0.153-0.074,0.318-0.073,0.48v2.326h-0.928V18.08h0.899v0.478
	c0.129-0.193,0.31-0.35,0.52-0.446c0.22-0.099,0.456-0.146,0.695-0.143L272.029,17.974z M275.087,17.974
	c0.272-0.005,0.546,0.053,0.798,0.161c0.237,0.104,0.45,0.258,0.622,0.454c0.185,0.202,0.326,0.439,0.421,0.699
	c0.102,0.291,0.15,0.598,0.147,0.904v0.177v0.169h-3.121c0.022,0.171,0.077,0.338,0.162,0.49c0.071,0.131,0.166,0.245,0.28,0.339
	c0.111,0.086,0.239,0.153,0.371,0.191c0.141,0.043,0.284,0.063,0.431,0.062c0.214-0.001,0.426-0.041,0.626-0.117
	c0.211-0.08,0.406-0.196,0.578-0.339l0.455,0.655c-0.236,0.21-0.514,0.369-0.813,0.465c-0.294,0.089-0.6,0.134-0.904,0.132
	c-0.295,0.004-0.589-0.051-0.861-0.159c-0.252-0.101-0.48-0.255-0.67-0.448c-0.194-0.202-0.342-0.441-0.439-0.703
	c-0.109-0.292-0.162-0.601-0.158-0.913c-0.004-0.309,0.049-0.615,0.154-0.905c0.092-0.261,0.236-0.498,0.421-0.703
	c0.188-0.197,0.416-0.353,0.668-0.453c0.263-0.107,0.545-0.163,0.829-0.163L275.087,17.974z M275.07,18.796
	c-0.147-0.005-0.295,0.021-0.434,0.074c-0.127,0.046-0.242,0.118-0.336,0.213c-0.095,0.098-0.171,0.213-0.223,0.34
	c-0.061,0.132-0.104,0.272-0.124,0.418h2.172c-0.026-0.286-0.146-0.556-0.336-0.769c-0.19-0.192-0.454-0.293-0.724-0.281
	L275.07,18.796z M280.986,16.003c0.265-0.004,0.527,0.028,0.785,0.087c0.246,0.059,0.48,0.144,0.707,0.258
	c0.213,0.108,0.41,0.247,0.592,0.408c0.173,0.157,0.322,0.342,0.443,0.542l-0.822,0.557c-0.183-0.273-0.432-0.499-0.719-0.654
	c-0.31-0.164-0.654-0.246-1.002-0.237c-0.296-0.005-0.59,0.052-0.861,0.163c-0.252,0.105-0.48,0.262-0.672,0.46
	c-0.194,0.203-0.348,0.445-0.447,0.711c-0.219,0.59-0.219,1.239,0,1.829c0.101,0.264,0.253,0.506,0.447,0.71
	c0.19,0.198,0.42,0.354,0.672,0.46c0.271,0.11,0.565,0.166,0.861,0.163c0.678,0.014,1.317-0.319,1.7-0.888l0.802,0.596
	c-0.131,0.193-0.285,0.368-0.461,0.521c-0.172,0.159-0.363,0.294-0.568,0.407c-0.217,0.11-0.448,0.196-0.689,0.25
	c-0.686,0.154-1.4,0.1-2.057-0.155c-0.766-0.303-1.372-0.919-1.672-1.692c-0.313-0.825-0.313-1.737,0-2.56
	c0.3-0.776,0.906-1.391,1.672-1.694C280.107,16.081,280.546,15.998,280.986,16.003z M286.366,17.959
	c0.307-0.002,0.612,0.053,0.896,0.17c0.266,0.106,0.506,0.264,0.713,0.466c0.2,0.201,0.361,0.44,0.469,0.705
	c0.229,0.565,0.229,1.2,0,1.767c-0.106,0.264-0.269,0.503-0.469,0.705c-0.207,0.2-0.447,0.359-0.713,0.465
	c-0.576,0.228-1.216,0.228-1.791,0c-0.267-0.105-0.507-0.265-0.712-0.465c-0.202-0.196-0.368-0.434-0.481-0.691
	c-0.226-0.567-0.226-1.2,0-1.769c0.107-0.263,0.269-0.503,0.468-0.702c0.206-0.203,0.446-0.363,0.713-0.468
	c0.29-0.118,0.601-0.177,0.913-0.173L286.366,17.959z M286.366,18.828c-0.177-0.001-0.354,0.033-0.517,0.099
	c-0.156,0.063-0.299,0.157-0.414,0.278c-0.121,0.123-0.213,0.268-0.274,0.427c-0.134,0.354-0.134,0.746,0,1.1
	c0.063,0.159,0.153,0.305,0.274,0.427c0.116,0.119,0.258,0.214,0.414,0.276c0.33,0.133,0.702,0.133,1.034,0
	c0.316-0.123,0.566-0.375,0.693-0.693c0.137-0.354,0.137-0.745,0-1.1c-0.062-0.161-0.155-0.305-0.276-0.427
	c-0.119-0.12-0.262-0.215-0.418-0.276c-0.162-0.066-0.337-0.101-0.513-0.098L286.366,18.828z M291.354,17.959
	c0.513-0.021,1.002,0.211,1.314,0.624v-2.642h0.911v6.367h-0.911V21.8c-0.146,0.188-0.33,0.342-0.541,0.449
	c-0.24,0.119-0.505,0.177-0.773,0.17c-0.557,0.005-1.092-0.22-1.479-0.626c-0.193-0.206-0.346-0.448-0.445-0.714
	c-0.214-0.577-0.214-1.212,0-1.787c0.102-0.262,0.254-0.503,0.445-0.704C290.262,18.182,290.797,17.956,291.354,17.959
	L291.354,17.959z M291.466,18.828c-0.183-0.001-0.36,0.035-0.528,0.11c-0.149,0.068-0.283,0.167-0.394,0.29
	c-0.11,0.124-0.192,0.272-0.248,0.43c-0.116,0.341-0.116,0.711,0,1.05c0.056,0.159,0.138,0.305,0.248,0.429
	c0.11,0.125,0.243,0.225,0.394,0.292c0.336,0.142,0.709,0.142,1.043,0c0.15-0.064,0.285-0.162,0.397-0.284
	c0.108-0.115,0.194-0.254,0.255-0.403c0.121-0.348,0.121-0.726,0-1.075c-0.059-0.158-0.146-0.303-0.258-0.426
	c-0.111-0.122-0.247-0.221-0.398-0.284c-0.158-0.076-0.334-0.114-0.511-0.115V18.828L291.466,18.828z M296.609,17.959
	c0.275-0.002,0.55,0.053,0.801,0.162c0.236,0.104,0.447,0.259,0.621,0.452c0.179,0.207,0.314,0.444,0.404,0.701
	c0.101,0.289,0.15,0.597,0.146,0.904v0.175v0.17h-3.084c0.022,0.175,0.078,0.34,0.161,0.491c0.072,0.129,0.168,0.246,0.283,0.339
	c0.11,0.088,0.237,0.152,0.371,0.192c0.14,0.041,0.283,0.063,0.429,0.061c0.213-0.001,0.427-0.041,0.627-0.118
	c0.211-0.078,0.405-0.192,0.579-0.337l0.453,0.657c-0.235,0.209-0.512,0.365-0.813,0.462c-0.293,0.089-0.598,0.134-0.904,0.133
	c-0.296,0.004-0.588-0.052-0.861-0.161c-0.252-0.101-0.479-0.254-0.668-0.448c-0.194-0.2-0.344-0.439-0.441-0.701
	c-0.109-0.291-0.161-0.603-0.156-0.914c-0.005-0.309,0.047-0.615,0.152-0.904c0.094-0.261,0.238-0.5,0.429-0.703
	c0.188-0.198,0.413-0.352,0.669-0.455c0.256-0.101,0.528-0.148,0.803-0.147V17.959L296.609,17.959z M299.02,22.298v-0.202h0.084
	v-0.045h-0.217v0.045h0.094v0.213L299.02,22.298z M299.438,22.298v-0.257h-0.066l-0.077,0.176l-0.077-0.176h-0.066v0.257h0.049
	v-0.193l0.07,0.167h0.045l0.07-0.167v0.193H299.438z M296.594,18.782c-0.146-0.002-0.295,0.022-0.433,0.075
	c-0.126,0.046-0.238,0.117-0.335,0.214c-0.094,0.097-0.169,0.211-0.225,0.337c-0.061,0.133-0.102,0.276-0.123,0.419h2.166
	c-0.024-0.29-0.143-0.562-0.334-0.777c-0.195-0.182-0.453-0.273-0.718-0.258L296.594,18.782L296.594,18.782z"/>
<path fill="#EB001B" d="M257.32,13.59h-1.023V8.315l-1.846,4.641h-1.075l-1.842-4.59v5.224h-1.03V7.181h1.568l1.841,4.58l1.838-4.58
	h1.567L257.32,13.59z M262.7,13.59h-0.945v-0.526c-0.151,0.195-0.342,0.354-0.562,0.467c-0.25,0.122-0.522,0.18-0.799,0.172
	c-0.578,0.007-1.133-0.228-1.537-0.649c-0.199-0.211-0.356-0.459-0.461-0.731c-0.223-0.598-0.223-1.257,0-1.855
	c0.104-0.272,0.262-0.521,0.461-0.732c0.404-0.421,0.959-0.656,1.537-0.65c0.277-0.007,0.551,0.053,0.799,0.176
	c0.22,0.113,0.41,0.274,0.562,0.471V9.205h0.945V13.59z M260.505,9.991c-0.188-0.004-0.375,0.035-0.548,0.111
	c-0.155,0.071-0.293,0.173-0.408,0.301c-0.113,0.131-0.199,0.283-0.257,0.447c-0.12,0.353-0.12,0.737,0,1.09
	c0.058,0.166,0.146,0.318,0.261,0.447c0.115,0.128,0.254,0.231,0.408,0.301c0.348,0.146,0.736,0.146,1.082,0
	c0.155-0.069,0.294-0.169,0.413-0.295c0.114-0.129,0.206-0.279,0.265-0.442c0.127-0.362,0.127-0.755,0-1.118
	c-0.059-0.164-0.148-0.314-0.265-0.443c-0.119-0.126-0.258-0.226-0.413-0.294C260.873,10.022,260.689,9.986,260.505,9.991z
	 M267.034,10.303c-0.079-0.047-0.16-0.089-0.244-0.125c-0.108-0.048-0.22-0.089-0.332-0.123c-0.125-0.037-0.25-0.068-0.376-0.091
	c-0.134-0.025-0.268-0.038-0.4-0.038c-0.211-0.012-0.421,0.039-0.605,0.146c-0.133,0.078-0.213,0.223-0.213,0.379
	c-0.004,0.069,0.018,0.137,0.056,0.193c0.04,0.054,0.093,0.098,0.151,0.128c0.072,0.038,0.146,0.064,0.228,0.082
	c0.088,0.02,0.181,0.038,0.281,0.054l0.446,0.067c0.397,0.042,0.779,0.187,1.105,0.42c0.273,0.207,0.432,0.537,0.418,0.883
	c0.002,0.202-0.044,0.4-0.135,0.579c-0.094,0.173-0.225,0.322-0.385,0.437c-0.187,0.135-0.395,0.236-0.617,0.295
	c-0.271,0.072-0.553,0.108-0.834,0.104c-0.112,0-0.24-0.007-0.389-0.021c-0.158-0.013-0.316-0.041-0.472-0.08
	c-0.174-0.044-0.343-0.102-0.507-0.173c-0.176-0.075-0.34-0.171-0.492-0.288l0.438-0.717c0.08,0.063,0.166,0.121,0.255,0.173
	c0.099,0.057,0.202,0.104,0.312,0.142c0.124,0.043,0.254,0.075,0.385,0.097c0.156,0.026,0.316,0.039,0.478,0.037
	c0.254,0.014,0.506-0.036,0.735-0.146c0.147-0.069,0.246-0.221,0.25-0.389c-0.004-0.128-0.071-0.244-0.182-0.309
	c-0.175-0.098-0.369-0.157-0.566-0.175l-0.452-0.061c-0.397-0.033-0.778-0.181-1.095-0.427c-0.25-0.213-0.389-0.529-0.379-0.859
	c-0.004-0.204,0.041-0.405,0.127-0.59c0.082-0.173,0.205-0.326,0.356-0.443c0.17-0.126,0.36-0.221,0.562-0.277
	c0.244-0.069,0.496-0.103,0.746-0.099c0.326-0.001,0.649,0.04,0.963,0.123c0.278,0.07,0.547,0.185,0.791,0.338L267.034,10.303z
	 M271.518,10.072h-1.67v1.909c0,0.129,0.021,0.258,0.064,0.379c0.029,0.095,0.079,0.181,0.146,0.255
	c0.06,0.065,0.133,0.115,0.217,0.146c0.086,0.031,0.178,0.048,0.271,0.047c0.155-0.002,0.31-0.031,0.45-0.089
	c0.146-0.056,0.289-0.125,0.422-0.209l0.374,0.764c-0.185,0.125-0.381,0.229-0.588,0.309c-0.237,0.089-0.487,0.132-0.738,0.128
	c-0.421,0.025-0.834-0.125-1.144-0.416c-0.305-0.358-0.452-0.824-0.414-1.294v-1.926h-0.859v-0.87h0.859V7.879h0.949v1.326h1.668
	L271.518,10.072z M274.425,9.086c0.284-0.003,0.567,0.053,0.829,0.166c0.245,0.107,0.467,0.269,0.646,0.471
	c0.185,0.212,0.326,0.46,0.42,0.728c0.104,0.301,0.154,0.619,0.15,0.938v0.183v0.171h-3.219c0.023,0.179,0.081,0.352,0.168,0.509
	c0.075,0.131,0.178,0.246,0.293,0.338c0.115,0.09,0.245,0.158,0.385,0.2c0.146,0.043,0.295,0.065,0.444,0.064
	c0.229,0.001,0.454-0.041,0.668-0.122c0.218-0.079,0.418-0.193,0.599-0.338l0.471,0.678c-0.243,0.216-0.53,0.38-0.842,0.48
	c-0.305,0.093-0.621,0.14-0.938,0.138c-0.313,0.012-0.623-0.039-0.911-0.148c-0.267-0.105-0.504-0.264-0.702-0.468
	c-0.201-0.208-0.357-0.456-0.457-0.728c-0.113-0.303-0.169-0.625-0.164-0.947c-0.005-0.319,0.049-0.637,0.157-0.938
	c0.099-0.271,0.247-0.52,0.443-0.73c0.188-0.203,0.415-0.363,0.668-0.471c0.282-0.118,0.587-0.175,0.893-0.17L274.425,9.086
	L274.425,9.086z M274.409,9.939c-0.154-0.003-0.31,0.024-0.452,0.079c-0.125,0.051-0.238,0.126-0.334,0.223
	c-0.098,0.098-0.178,0.213-0.232,0.339c-0.068,0.14-0.113,0.29-0.139,0.443h2.245c-0.028-0.298-0.156-0.578-0.358-0.796
	C274.941,10.035,274.68,9.932,274.409,9.939L274.409,9.939z M279.755,9.086c0.132,0,0.261,0.01,0.39,0.031
	c0.115,0.02,0.229,0.051,0.334,0.095l-0.227,0.948c-0.105-0.054-0.218-0.095-0.333-0.119c-0.122-0.027-0.248-0.04-0.371-0.041
	c-0.143,0-0.282,0.025-0.414,0.078c-0.128,0.05-0.241,0.129-0.334,0.231c-0.096,0.108-0.168,0.235-0.216,0.372
	c-0.053,0.16-0.078,0.329-0.076,0.498v2.413h-0.945v-4.4h0.937v0.494c0.132-0.196,0.313-0.354,0.528-0.454
	c0.227-0.098,0.472-0.146,0.718-0.143L279.755,9.086z M282.984,9.086c0.313-0.003,0.621,0.057,0.908,0.176
	c0.276,0.114,0.52,0.294,0.709,0.525l-0.604,0.653c-0.143-0.138-0.303-0.252-0.479-0.339c-0.177-0.079-0.369-0.12-0.563-0.118
	c-0.174-0.001-0.344,0.033-0.504,0.101c-0.154,0.067-0.293,0.165-0.408,0.288c-0.115,0.129-0.207,0.279-0.268,0.443
	c-0.131,0.369-0.131,0.772,0,1.14c0.061,0.165,0.152,0.315,0.268,0.444c0.115,0.124,0.254,0.221,0.408,0.288
	c0.16,0.069,0.332,0.104,0.504,0.102c0.201,0.002,0.4-0.043,0.582-0.129c0.177-0.087,0.337-0.201,0.479-0.339l0.582,0.661
	c-0.195,0.229-0.439,0.409-0.717,0.525c-0.287,0.12-0.595,0.179-0.904,0.175c-0.32,0.005-0.639-0.054-0.937-0.175
	c-0.544-0.221-0.972-0.662-1.179-1.217c-0.217-0.589-0.217-1.24,0-1.832c0.207-0.554,0.635-0.995,1.179-1.214
	c0.298-0.113,0.614-0.166,0.933-0.156L282.984,9.086z M289.624,13.59h-0.944v-0.526c-0.15,0.195-0.343,0.354-0.562,0.467
	c-0.249,0.122-0.523,0.18-0.8,0.172c-0.577,0.007-1.133-0.228-1.536-0.649c-0.199-0.211-0.356-0.459-0.462-0.731
	c-0.223-0.598-0.223-1.257,0-1.855c0.104-0.272,0.263-0.521,0.462-0.732c0.403-0.421,0.959-0.656,1.536-0.65
	c0.275-0.007,0.551,0.053,0.8,0.176c0.219,0.113,0.411,0.274,0.562,0.471V9.205h0.944V13.59z M287.434,9.991
	c-0.188-0.004-0.377,0.035-0.55,0.111c-0.155,0.071-0.294,0.173-0.405,0.301c-0.115,0.131-0.201,0.283-0.258,0.447
	c-0.119,0.353-0.119,0.737,0,1.09c0.057,0.166,0.144,0.316,0.258,0.447c0.111,0.128,0.25,0.231,0.405,0.301
	c0.347,0.146,0.737,0.146,1.084,0c0.154-0.069,0.296-0.169,0.411-0.295c0.117-0.129,0.207-0.279,0.268-0.442
	c0.127-0.362,0.127-0.755,0-1.118c-0.061-0.164-0.149-0.315-0.268-0.443c-0.115-0.126-0.257-0.226-0.411-0.294
	c-0.168-0.072-0.349-0.108-0.53-0.104L287.434,9.991L287.434,9.991z M293.209,9.089c0.131,0,0.264,0.01,0.391,0.031
	c0.115,0.021,0.229,0.052,0.336,0.095l-0.228,0.949c-0.106-0.055-0.218-0.095-0.334-0.119c-0.122-0.026-0.247-0.04-0.372-0.041
	c-0.141-0.001-0.282,0.025-0.414,0.078c-0.127,0.049-0.24,0.128-0.333,0.23c-0.096,0.109-0.168,0.235-0.216,0.373
	c-0.053,0.161-0.079,0.329-0.074,0.498v2.413h-0.945v-4.4h0.945V9.69c0.131-0.198,0.314-0.357,0.53-0.457
	c0.226-0.099,0.471-0.146,0.719-0.143L293.209,9.089L293.209,9.089z M296.311,9.089c0.276-0.006,0.551,0.054,0.799,0.177
	c0.219,0.114,0.41,0.274,0.563,0.47V6.998h0.945v6.592h-0.945v-0.526c-0.15,0.195-0.344,0.354-0.563,0.467
	c-0.248,0.122-0.521,0.18-0.799,0.172c-0.578,0.006-1.135-0.228-1.537-0.649c-0.203-0.21-0.362-0.458-0.469-0.731
	c-0.225-0.599-0.225-1.258,0-1.855c0.103-0.272,0.26-0.521,0.461-0.732c0.4-0.42,0.955-0.655,1.534-0.649L296.311,9.089z
	 M299.718,13.187c0.037-0.001,0.076,0.005,0.111,0.02c0.034,0.013,0.063,0.036,0.09,0.061c0.024,0.025,0.046,0.055,0.06,0.088
	c0.029,0.069,0.029,0.147,0,0.217c-0.014,0.032-0.033,0.062-0.06,0.087c-0.026,0.026-0.058,0.047-0.09,0.061
	c-0.035,0.016-0.074,0.024-0.111,0.024c-0.11,0.002-0.215-0.065-0.259-0.169c-0.029-0.069-0.029-0.147,0-0.216
	c0.025-0.068,0.081-0.122,0.148-0.149c0.035-0.015,0.076-0.023,0.112-0.023L299.718,13.187L299.718,13.187z M299.718,13.684
	c0.029,0,0.058-0.005,0.085-0.017c0.025-0.012,0.047-0.028,0.065-0.047c0.083-0.087,0.083-0.223,0-0.309
	c-0.019-0.021-0.04-0.037-0.065-0.047c-0.027-0.007-0.057-0.007-0.085,0c-0.026-0.007-0.054-0.007-0.082,0
	c-0.061,0.028-0.104,0.085-0.116,0.152c-0.014,0.066,0.004,0.135,0.051,0.187c0.019,0.02,0.041,0.036,0.065,0.046
	c0.026,0.017,0.056,0.027,0.085,0.031L299.718,13.684z M299.718,13.346c0.028-0.002,0.056,0.006,0.077,0.023
	c0.02,0.014,0.028,0.037,0.028,0.061c0,0.02-0.009,0.039-0.021,0.054c-0.017,0.015-0.036,0.025-0.06,0.027l0.082,0.099h-0.064
	l-0.076-0.099h-0.025v0.099h-0.053v-0.261L299.718,13.346z M299.654,13.393v0.068h0.063c0.014,0.003,0.024,0.003,0.034,0
	c0.003-0.009,0.003-0.019,0-0.027c0.006-0.008,0.006-0.019,0-0.027c-0.01-0.004-0.021-0.004-0.034,0L299.654,13.393z
	 M296.408,10.007c-0.189-0.003-0.376,0.035-0.549,0.112c-0.156,0.071-0.295,0.173-0.408,0.302c-0.112,0.13-0.2,0.282-0.258,0.447
	c-0.119,0.353-0.119,0.737,0,1.089c0.058,0.166,0.146,0.317,0.258,0.447c0.113,0.128,0.252,0.231,0.408,0.301
	c0.347,0.146,0.736,0.146,1.082,0c0.156-0.068,0.295-0.168,0.412-0.294c0.127-0.134,0.228-0.294,0.291-0.471
	c0.123-0.362,0.123-0.756,0-1.116c-0.061-0.165-0.15-0.316-0.27-0.444c-0.115-0.125-0.255-0.226-0.409-0.295
	c-0.17-0.069-0.356-0.102-0.539-0.094L296.408,10.007z"/>
</svg>
